<svg width="31" height="31" viewBox="0 0 31 31" fill="none" xmlns="http://www.w3.org/2000/svg">
<path d="M25.4747 26.4563C25.1314 26.4563 24.7881 26.3267 24.526 26.0675L4.28712 6.04659C3.76302 5.52857 3.76302 4.68783 4.28712 4.16984C4.81121 3.6514 5.66024 3.6514 6.18434 4.16984L26.4233 24.1907C26.9474 24.7088 26.9474 25.5495 26.4233 26.0675C26.1612 26.3267 25.8179 26.4563 25.4747 26.4563Z" fill="#656565"/>
<path d="M5.23574 26.4563C4.89245 26.4563 4.54918 26.3267 4.28712 26.0675C3.76302 25.5495 3.76302 24.7087 4.28712 24.1907L24.526 4.16984C25.0501 3.6514 25.8992 3.6514 26.4233 4.16984C26.9474 4.68786 26.9474 5.5286 26.4233 6.04659L6.18434 26.0675C5.92231 26.3267 5.57901 26.4563 5.23574 26.4563Z" fill="#656565"/>
</svg>
