<svg xmlns="http://www.w3.org/2000/svg" version="1.1" xmlns:xlink="http://www.w3.org/1999/xlink" xmlns:svgjs="http://svgjs.dev/svgjs" width="1500" height="935" viewBox="0 0 1500 935"><g transform="matrix(1,0,0,1,-0.9090909090909918,91.70560360691934)"><svg viewBox="0 0 396 247" data-background-color="#ffffff" preserveAspectRatio="xMidYMid meet" height="935" width="1500" xmlns="http://www.w3.org/2000/svg" xmlns:xlink="http://www.w3.org/1999/xlink"><g id="tight-bounds" transform="matrix(1,0,0,1,0.2400000000000091,-0.09999999999999432)"><svg viewBox="0 0 395.52 247.2" height="247.2" width="395.52"><g><svg></svg></g><g><svg viewBox="0 0 395.52 247.2" height="247.2" width="395.52"><g transform="matrix(1,0,0,1,75.54432,103.96853586057344)"><svg viewBox="0 0 244.43135999999998 39.2629282788531" height="39.2629282788531" width="244.43135999999998"><g><svg viewBox="0 0 244.43135999999998 39.2629282788531" height="39.2629282788531" width="244.43135999999998"><g><svg viewBox="0 0 244.43135999999998 39.2629282788531" height="39.2629282788531" width="244.43135999999998"><g><svg viewBox="0 0 244.43135999999998 39.2629282788531" height="39.2629282788531" width="244.43135999999998"><g id="textblocktransform"><svg viewBox="0 0 244.43135999999998 39.2629282788531" height="39.2629282788531" width="244.43135999999998" id="textblock"><g><svg viewBox="0 0 244.43135999999998 39.2629282788531" height="39.2629282788531" width="244.43135999999998"><g transform="matrix(1,0,0,1,0,0)"><svg width="244.43135999999998" viewBox="2.73 -37.11 303.95 48.83" height="39.2629282788531" data-palette-color="#778899"><path d="M24.41-9.33L24.41-9.33Q24.41-4.69 21.11-2.1 17.8 0.49 12.18 0.49L12.18 0.49Q9.3 0.49 6.85 0.06 4.39-0.37 2.73-1.17L2.73-1.17 2.73-5.37Q4.49-4.61 7.06-3.97 9.62-3.32 12.35-3.32L12.35-3.32Q16.14-3.32 18.09-4.83 20.04-6.35 20.04-8.94L20.04-8.94Q20.04-10.64 19.31-11.82 18.58-12.99 16.83-13.98 15.09-14.97 11.99-16.11L11.99-16.11Q7.62-17.72 5.4-20.07 3.17-22.41 3.17-26.46L3.17-26.46Q3.17-29.22 4.57-31.21 5.96-33.2 8.42-34.28 10.89-35.35 14.14-35.35L14.14-35.35Q16.97-35.35 19.32-34.81 21.68-34.28 23.63-33.4L23.63-33.4 22.27-29.64Q20.46-30.42 18.37-30.96 16.28-31.49 14.04-31.49L14.04-31.49Q10.86-31.49 9.24-30.09 7.62-28.69 7.62-26.42L7.62-26.42Q7.62-24.66 8.33-23.49 9.03-22.31 10.67-21.37 12.3-20.43 15.09-19.38L15.09-19.38Q18.12-18.24 20.19-16.96 22.27-15.67 23.34-13.87 24.41-12.06 24.41-9.33ZM44.28-26.66L44.28-26.66Q49.31-26.66 52.38-23.29 55.44-19.92 55.44-13.13L55.44-13.13Q55.44-6.45 52.38-2.98 49.31 0.49 44.24 0.49L44.24 0.49Q41.09 0.49 39.04-0.65 36.98-1.78 35.79-3.32L35.79-3.32 35.5-3.32Q35.57-2.49 35.68-1.22 35.79 0.05 35.79 0.98L35.79 0.98 35.79 11.72 31.49 11.72 31.49-26.17 35.03-26.17 35.59-22.61 35.79-22.61Q37.01-24.29 38.99-25.48 40.96-26.66 44.28-26.66ZM43.55-23.05L43.55-23.05Q39.35-23.05 37.57-20.8 35.79-18.55 35.79-13.96L35.79-13.96 35.79-13.13Q35.79-8.3 37.47-5.69 39.16-3.08 43.67-3.08L43.67-3.08Q47.41-3.08 49.2-5.93 51-8.79 51-13.18L51-13.18Q51-17.65 49.19-20.35 47.39-23.05 43.55-23.05ZM86.23-13.13L86.23-13.13Q86.23-6.62 82.84-3.06 79.46 0.49 73.7 0.49L73.7 0.49Q70.14 0.49 67.34-1.11 64.55-2.71 62.95-5.75 61.35-8.79 61.35-13.13L61.35-13.13Q61.35-19.63 64.7-23.14 68.06-26.66 73.85-26.66L73.85-26.66Q77.49-26.66 80.28-25.07 83.08-23.49 84.65-20.47 86.23-17.46 86.23-13.13ZM65.82-13.13L65.82-13.13Q65.82-8.5 67.73-5.79 69.65-3.08 73.8-3.08L73.8-3.08Q77.92-3.08 79.85-5.79 81.78-8.5 81.78-13.13L81.78-13.13Q81.78-17.8 79.84-20.42 77.9-23.05 73.75-23.05L73.75-23.05Q69.6-23.05 67.71-20.42 65.82-17.8 65.82-13.13ZM105.75-26.66L105.75-26.66Q106.46-26.66 107.29-26.59 108.12-26.51 108.76-26.37L108.76-26.37 108.24-22.41Q107.63-22.56 106.87-22.66 106.1-22.75 105.44-22.75L105.44-22.75Q103.46-22.75 101.75-21.66 100.04-20.56 99-18.58 97.97-16.6 97.97-13.96L97.97-13.96 97.97 0 93.67 0 93.67-26.17 97.18-26.17 97.67-21.39 97.87-21.39Q99.09-23.56 101.07-25.11 103.04-26.66 105.75-26.66ZM123.23-3.03L123.23-3.03Q124.23-3.03 125.36-3.19 126.48-3.34 127.09-3.56L127.09-3.56 127.09-0.29Q126.41 0.02 125.08 0.26 123.74 0.49 122.57 0.49L122.57 0.49Q120.42 0.49 118.57-0.22 116.71-0.93 115.58-2.69 114.44-4.44 114.44-7.62L114.44-7.62 114.44-22.85 110.41-22.85 110.41-24.9 114.44-26.61 116.23-32.18 118.74-32.18 118.74-26.17 126.89-26.17 126.89-22.85 118.74-22.85 118.74-7.71Q118.74-5.35 120.01-4.19 121.28-3.03 123.23-3.03ZM151.33-7.23L151.33-7.23Q151.33-3.42 148.22-1.46 145.1 0.49 139.95 0.49L139.95 0.49Q136.93 0.49 134.79 0.06 132.65-0.37 131.07-1.17L131.07-1.17 131.07-5.08Q132.65-4.32 135.08-3.65 137.51-2.98 140.1-2.98L140.1-2.98Q143.81-2.98 145.5-4.03 147.18-5.08 147.18-6.84L147.18-6.84Q147.18-7.81 146.58-8.59 145.98-9.38 144.43-10.16 142.88-10.94 140.03-11.91L140.03-11.91Q137.22-12.89 135.19-13.87 133.17-14.84 132.08-16.21 130.99-17.58 130.99-19.73L130.99-19.73Q130.99-23.07 133.95-24.87 136.9-26.66 141.69-26.66L141.69-26.66Q144.27-26.66 146.52-26.18 148.77-25.71 150.72-24.9L150.72-24.9 149.21-21.48Q147.42-22.19 145.46-22.67 143.49-23.14 141.32-23.14L141.32-23.14Q138.29-23.14 136.69-22.29 135.09-21.44 135.09-19.97L135.09-19.97Q135.09-18.87 135.82-18.12 136.54-17.36 138.18-16.65 139.83-15.94 142.64-14.99L142.64-14.99Q145.4-14.06 147.34-13.07 149.28-12.08 150.3-10.71 151.33-9.33 151.33-7.23ZM193.98-9.33L193.98-9.33Q193.98-4.69 190.67-2.1 187.36 0.49 181.75 0.49L181.75 0.49Q178.86 0.49 176.41 0.06 173.96-0.37 172.3-1.17L172.3-1.17 172.3-5.37Q174.05-4.61 176.62-3.97 179.18-3.32 181.92-3.32L181.92-3.32Q185.7-3.32 187.65-4.83 189.61-6.35 189.61-8.94L189.61-8.94Q189.61-10.64 188.87-11.82 188.14-12.99 186.4-13.98 184.65-14.97 181.55-16.11L181.55-16.11Q177.18-17.72 174.96-20.07 172.74-22.41 172.74-26.46L172.74-26.46Q172.74-29.22 174.13-31.21 175.52-33.2 177.99-34.28 180.45-35.35 183.7-35.35L183.7-35.35Q186.53-35.35 188.89-34.81 191.24-34.28 193.2-33.4L193.2-33.4 191.83-29.64Q190.02-30.42 187.93-30.96 185.85-31.49 183.6-31.49L183.6-31.49Q180.43-31.49 178.8-30.09 177.18-28.69 177.18-26.42L177.18-26.42Q177.18-24.66 177.89-23.49 178.6-22.31 180.23-21.37 181.87-20.43 184.65-19.38L184.65-19.38Q187.68-18.24 189.75-16.96 191.83-15.67 192.9-13.87 193.98-12.06 193.98-9.33ZM210.16-3.03L210.16-3.03Q211.16-3.03 212.28-3.19 213.41-3.34 214.02-3.56L214.02-3.56 214.02-0.29Q213.33 0.02 212 0.26 210.67 0.49 209.5 0.49L209.5 0.49Q207.35 0.49 205.5-0.22 203.64-0.93 202.51-2.69 201.37-4.44 201.37-7.62L201.37-7.62 201.37-22.85 197.34-22.85 197.34-24.9 201.37-26.61 203.15-32.18 205.67-32.18 205.67-26.17 213.82-26.17 213.82-22.85 205.67-22.85 205.67-7.71Q205.67-5.35 206.94-4.19 208.21-3.03 210.16-3.03ZM224.9 3.56L226.42 0.1 215.26-26.17 219.85-26.17 225.91-11.28Q226.74-9.3 227.37-7.53 228-5.76 228.32-4.15L228.32-4.15 228.52-4.15Q228.86-5.37 229.54-7.35 230.23-9.33 230.98-11.33L230.98-11.33 236.65-26.17 241.31-26.17 229.35 3.61Q227.91 7.3 225.65 9.51 223.39 11.72 219.44 11.72L219.44 11.72Q218.21 11.72 217.27 11.6 216.33 11.47 215.68 11.33L215.68 11.33 215.68 7.91Q216.24 8.01 217.03 8.11 217.82 8.2 218.73 8.2L218.73 8.2Q221.1 8.2 222.56 6.95 224.03 5.69 224.9 3.56L224.9 3.56ZM246.39-37.11L250.68-37.11 250.68 0 246.39 0 246.39-37.11ZM270.19-26.66L270.19-26.66Q275.17-26.66 278.02-23.43 280.88-20.19 280.88-14.84L280.88-14.84 280.88-12.26 263.16-12.26Q263.28-7.84 265.41-5.51 267.55-3.17 271.41-3.17L271.41-3.17Q273.87-3.17 275.79-3.64 277.71-4.1 279.73-4.98L279.73-4.98 279.73-1.22Q277.73-0.34 275.8 0.07 273.87 0.49 271.21 0.49L271.21 0.49Q267.53 0.49 264.71-1.04 261.89-2.56 260.3-5.54 258.71-8.52 258.71-12.89L258.71-12.89Q258.71-17.19 260.15-20.28 261.59-23.36 264.18-25.01 266.77-26.66 270.19-26.66ZM270.14-23.14L270.14-23.14Q267.11-23.14 265.35-21.17 263.6-19.19 263.25-15.67L263.25-15.67 276.41-15.67Q276.39-19.02 274.87-21.08 273.36-23.14 270.14-23.14ZM306.68-7.23L306.68-7.23Q306.68-3.42 303.57-1.46 300.46 0.49 295.31 0.49L295.31 0.49Q292.28 0.49 290.14 0.06 288.01-0.37 286.42-1.17L286.42-1.17 286.42-5.08Q288.01-4.32 290.44-3.65 292.87-2.98 295.45-2.98L295.45-2.98Q299.16-2.98 300.85-4.03 302.53-5.08 302.53-6.84L302.53-6.84Q302.53-7.81 301.94-8.59 301.34-9.38 299.79-10.16 298.24-10.94 295.38-11.91L295.38-11.91Q292.57-12.89 290.55-13.87 288.52-14.84 287.43-16.21 286.35-17.58 286.35-19.73L286.35-19.73Q286.35-23.07 289.3-24.87 292.26-26.66 297.04-26.66L297.04-26.66Q299.63-26.66 301.87-26.18 304.12-25.71 306.07-24.9L306.07-24.9 304.56-21.48Q302.78-22.19 300.81-22.67 298.85-23.14 296.67-23.14L296.67-23.14Q293.65-23.14 292.05-22.29 290.45-21.44 290.45-19.97L290.45-19.97Q290.45-18.87 291.17-18.12 291.89-17.36 293.54-16.65 295.18-15.94 297.99-14.99L297.99-14.99Q300.75-14.06 302.69-13.07 304.63-12.08 305.66-10.71 306.68-9.33 306.68-7.23Z" opacity="1" transform="matrix(1,0,0,1,0,0)" fill="#778899" class="wordmark-text-0" data-fill-palette-color="primary" id="text-0"></path></svg></g></svg></g></svg></g></svg></g><g></g></svg></g></svg></g></svg></g><g><path d="M79.011 94.7A122.216 122.216 0 0 1 316.509 94.7L312.969 94.7A118.675 118.675 0 0 0 82.551 94.7L79.011 94.7M79.011 152.5A122.216 122.216 0 0 0 316.509 152.5L312.969 152.5A118.675 118.675 0 0 1 82.551 152.5L79.011 152.5" fill="#778899" stroke="transparent" data-fill-palette-color="tertiary"></path></g></svg></g><defs></defs></svg><rect width="395.52" height="247.2" fill="none" stroke="none" visibility="hidden"></rect></g></svg></g></svg>